<?xml version="1.0" encoding="iso-8859-1"?>
<!-- Uploaded to: SVG Repo, www.svgrepo.com, Generator: SVG Repo Mixer Tools -->
<!DOCTYPE svg PUBLIC "-//W3C//DTD SVG 1.1//EN" "http://www.w3.org/Graphics/SVG/1.1/DTD/svg11.dtd">
<svg fill="#000000" height="800px" width="800px" version="1.1" id="Capa_1" xmlns="http://www.w3.org/2000/svg" xmlns:xlink="http://www.w3.org/1999/xlink" 
	 viewBox="0 0 459.995 459.995" xml:space="preserve">
<g>
	<path d="M459.992,175.924c-0.508-21.323-25.097-40.832-69.369-55C347.646,107.172,290.602,99.598,230,99.598
		s-117.646,7.574-160.623,21.326C25.453,134.98,0.904,154.295,0.025,175.422c-0.016,0.381-0.027,1.746-0.025,2.032
		c0.277,48.995,24.326,94.951,67.79,129.489c43.378,34.47,100.984,53.454,162.208,53.454c61.228,0,118.835-18.984,162.212-53.454
		c43.479-34.552,67.527-80.532,67.785-129.552C459.995,177.159,459.997,176.149,459.992,175.924z M265.271,147.03
		c-3.536,1.484-7.597,2.237-12.068,2.237c-6.463,0-12.514-1.567-16.433-2.872c2.941-6.019,9.311-16.516,19.503-20.795
		c3.536-1.485,7.597-2.238,12.069-2.238c6.463,0,12.514,1.567,16.433,2.872C281.834,132.254,275.464,142.751,265.271,147.03z
		 M223.453,146.243c-3.967,1.368-10.144,3.025-16.793,3.025c-4.319,0-8.258-0.714-11.705-2.123
		c-10.235-4.182-16.706-14.619-19.704-20.606c3.985-1.37,10.184-3.033,16.788-3.033c4.32,0,8.259,0.714,11.706,2.123
		C213.985,129.813,220.457,140.258,223.453,146.243z M191.172,156.402c4.654,1.902,9.865,2.866,15.488,2.866
		c10.056,0,19.046-3.072,23.211-4.752c3.833,1.55,13,4.751,23.332,4.751c5.809,0,11.171-1.015,15.939-3.017
		c6.225-2.614,11.249-6.82,15.204-11.306c76.222,6.093,137.228,24.795,158.194,48.278c-9.704,10.82-28.589,21.085-54.965,29.525
		c-42.018,13.446-97.979,20.851-157.575,20.851s-115.558-7.405-157.575-20.851c-26.378-8.441-45.264-18.707-54.967-29.528
		c20.96-23.477,81.944-42.174,158.14-48.267C179.635,149.511,184.786,153.793,191.172,156.402z M72.424,130.449
		c42.018-13.446,97.979-20.851,157.575-20.851s115.558,7.405,157.575,20.851c39.132,12.522,61.801,29.058,62.412,45.47
		c0.008,0.222,0.003,1.256-0.009,1.507c-0.111,2.422-0.706,4.845-1.757,7.259c-23.747-24.126-82.25-42.529-157.059-49.201
		c3.27-5.545,4.844-9.993,4.986-10.404c0.833-2.409-0.279-5.058-2.582-6.15c-0.479-0.228-11.884-5.566-25.224-5.566
		c-5.809,0-11.172,1.015-15.94,3.017c-8.579,3.602-14.882,10.223-19.236,16.443c-2.04-0.012-4.073-0.011-6.105,0
		c-4.418-6.234-10.83-12.895-19.534-16.451c-4.654-1.902-9.865-2.866-15.488-2.866c-13.543,0-25.161,5.574-25.648,5.812
		c-2.292,1.115-3.379,3.775-2.523,6.175c0.143,0.401,1.698,4.656,4.878,10.003c-74.762,6.674-133.229,25.07-156.968,49.185
		c-1.17-2.687-1.777-5.387-1.777-8.083C10,159.965,32.753,143.144,72.424,130.449z M229.998,350.397
		c-110.276,0-201.851-64.432-217.598-148.143c11.504,11.387,30.791,21.638,56.977,30.018
		c42.977,13.752,100.021,21.326,160.623,21.326s117.646-7.574,160.623-21.326c26.183-8.379,45.468-18.628,56.972-30.014
		C431.846,285.968,340.271,350.397,229.998,350.397z"/>
	<path d="M136.921,189.221c9.535,6.45,21.86,6.45,31.396,0c6.133-4.147,14.058-4.148,20.192,0c9.537,6.45,21.862,6.449,31.396,0
		c6.133-4.147,14.059-4.147,20.191,0c9.535,6.449,21.858,6.45,31.396,0c6.133-4.147,14.059-4.148,20.191,0
		c4.769,3.225,10.233,4.837,15.698,4.837s10.93-1.612,15.698-4.837c2.287-1.547,2.887-4.656,1.34-6.943
		c-1.547-2.287-4.652-2.887-6.943-1.34c-6.131,4.148-14.058,4.148-20.19,0c-9.535-6.448-21.86-6.448-31.396,0
		c-6.133,4.147-14.058,4.149-20.192,0c-9.536-6.449-21.86-6.45-31.395,0c-6.133,4.148-14.06,4.148-20.192,0
		c-9.535-6.448-21.859-6.449-31.396,0c-6.131,4.148-14.057,4.147-20.191,0c-2.289-1.549-5.396-0.947-6.942,1.34
		C134.033,184.566,134.633,187.674,136.921,189.221z"/>
	<path d="M291.683,210.774c-6.133,4.148-14.06,4.147-20.192,0c-9.535-6.448-21.859-6.449-31.396,0
		c-6.131,4.148-14.058,4.148-20.19,0c-9.535-6.449-21.86-6.448-31.396,0c-6.132,4.147-14.059,4.148-20.192,0
		c-2.288-1.549-5.396-0.947-6.942,1.34c-1.547,2.288-0.947,5.396,1.341,6.943c9.535,6.449,21.858,6.45,31.396,0
		c6.133-4.147,14.059-4.148,20.191,0c4.77,3.226,10.232,4.838,15.698,4.837c5.464,0,10.93-1.613,15.697-4.837
		c6.133-4.147,14.058-4.148,20.192,0c9.534,6.448,21.859,6.449,31.396,0c2.288-1.547,2.888-4.655,1.341-6.943
		C297.081,209.827,293.97,209.228,291.683,210.774z"/>
</g>
</svg>